<?xml version="1.0" encoding="UTF-8"?>
<svg id="Layer_1" data-name="Layer 1" xmlns="http://www.w3.org/2000/svg" viewBox="0 0 210.6 69.09">
  <defs>
    <style>
      .cls-1 {
        fill: #fff;
      }

      .cls-2 {
        fill: #0d7bbf;
      }

      .cls-3 {
        fill: #233f82;
      }

      .cls-4 {
        fill: #414042;
      }
    </style>
  </defs>
  <path class="cls-3" d="m66.61,55.63c1.31.19,2.66.28,4.06.28,1.92,0,3.76-.18,5.53-.54l-9.6.26Zm0,0l-1.65.59-7.47,2.68c-1.17.46-1.76,1.35-1.76,2.68,0,.77.29,1.47.88,2.11s1.31.96,2.18.96c.82,0,1.54-.16,2.15-.46s1.25-.61,1.91-.91c.66-.31,1.48-.46,2.46-.46,1.94,0,3.61.31,5.01.96,1.4.64,2.83,1.36,4.29,2.18s3.16,1.54,5.13,2.18,4.5.96,7.62.96c1.43,0,2.98-.2,4.64-.61,1.65-.41,3.24-.97,4.75-1.68s2.73-1.52,3.68-2.42c.94-.89,1.42-1.82,1.42-2.79,0-.82-.29-1.5-.88-2.07-.58-.56-1.24-.83-1.95-.83s-1.36.27-1.95.8-1.27,1.09-2.03,1.65c-.76.51-1.75,1.03-2.94,1.57-1.2.54-2.7.81-4.49.81-2.04,0-3.87-.31-5.48-.92-1.61-.61-3.13-1.3-4.56-2.07-1.42-.76-2.94-1.46-4.52-2.07-1.02-.39-2.11-.66-3.29-.8l4.04-1.42,2.42-.85-9.6.26Z"/>
  <path class="cls-3" d="m31.79,48.53c-.61-.59-1.35-.88-2.22-.88H6.36V3.14c0-.87-.31-1.6-.92-2.18C4.83.37,4.09.08,3.22.08,2.3.08,1.54.37.92.96c-.61.58-.92,1.31-.92,2.18v47.42c0,.87.29,1.61.88,2.22.58.61,1.31.92,2.18.92h26.51c.87,0,1.61-.28,2.22-.84.61-.57.92-1.28.92-2.15s-.31-1.6-.92-2.18Z"/>
  <path class="cls-3" d="m43.89.96c-.61-.59-1.35-.88-2.22-.88-.92,0-1.69.29-2.3.88-.61.58-.92,1.34-.92,2.26v47.34c0,.87.28,1.61.84,2.22.56.61,1.33.92,2.3.92.87,0,1.62-.31,2.26-.92.64-.61.96-1.35.96-2.22V3.22c0-.92-.31-1.68-.92-2.26Z"/>
  <path class="cls-3" d="m137.83.92c-.57-.61-1.28-.92-2.15-.92-.92,0-1.63.31-2.14.92-.51.61-.77,1.35-.77,2.22v30.41c0,2.81-.68,5.31-2.02,7.51-1.35,2.2-3.13,3.92-5.33,5.17s-4.59,1.87-7.2,1.87-4.92-.62-7.08-1.87c-2.17-1.25-3.9-2.98-5.17-5.17-1.28-2.2-1.92-4.7-1.92-7.51V3.14c0-.87-.31-1.61-.95-2.22s-1.37-.92-2.19-.92c-.97,0-1.75.31-2.33.92-.59.61-.88,1.35-.88,2.22v30.41c0,3.94.89,7.45,2.68,10.57s4.23,5.58,7.32,7.39c3.09,1.82,6.6,2.72,10.53,2.72s7.35-.91,10.41-2.72c3.06-1.81,5.5-4.27,7.31-7.39,1.82-3.12,2.72-6.64,2.72-10.57V3.14c0-.87-.28-1.61-.84-2.22Z"/>
  <path class="cls-3" d="m154.45.96c-.61-.59-1.35-.88-2.22-.88-.92,0-1.68.29-2.3.88-.61.58-.92,1.34-.92,2.26v47.34c0,.87.28,1.61.84,2.22.57.61,1.33.92,2.3.92.87,0,1.62-.31,2.26-.92.65-.61.96-1.35.96-2.22V3.22c0-.92-.31-1.68-.92-2.26Z"/>
  <path class="cls-3" d="m209.18,16.67c-.94-3.24-2.36-6.12-4.25-8.62-1.89-2.5-4.25-4.46-7.08-5.86-2.83-1.4-6.12-2.1-9.85-2.1h-19.14c-.87,0-1.6.29-2.19.88-.58.58-.88,1.31-.88,2.18v47.42c0,.87.3,1.61.88,2.22.59.61,1.31.92,2.19.92h19.14c5.06,0,9.25-1.22,12.56-3.64,3.32-2.42,5.83-5.67,7.51-9.73,1.68-4.05,2.53-8.54,2.53-13.44,0-3.57-.47-6.98-1.42-10.23Zm-6.9,20.64c-1.15,3.17-2.96,5.7-5.44,7.58-2.47,1.9-5.68,2.84-9.61,2.84h-15.09v.76l-.46-.76h.46V5.97h-.61l.61-.61v.61h15.09c2.96,0,5.5.57,7.62,1.68,2.13,1.13,3.86,2.66,5.21,4.6,1.35,1.94,2.35,4.18,2.99,6.71.64,2.53.95,5.16.95,7.93,0,3.78-.57,7.25-1.72,10.41Z"/>
  <path class="cls-2" d="m71.92,47.09c-.32.64-.96,1.02-1.65,1.02-.26,0-.54-.06-.8-.19-10.03-4.88-10.15-13.85-10.15-14.22,0-1,.82-1.82,1.82-1.82s1.82.82,1.82,1.81c0,.32.19,7.11,8.11,10.96.92.45,1.28,1.54.84,2.44h0Z"/>
  <path class="cls-3" d="m83.07,31.5c-.09.01-.19.01-.28.01-.89,0-1.66-.64-1.79-1.54-.47-3.07-2.82-3.95-2.84-3.95-.95-.32-1.47-1.35-1.15-2.3s1.35-1.47,2.3-1.15c.19.06,4.48,1.56,5.29,6.86.15.99-.54,1.91-1.53,2.07h0Z"/>
  <path class="cls-3" d="m83.89,46c-.06.06-.1.12-.16.16-.19.19-.36.36-.55.52-1.05.95-2.14,1.73-3.3,2.34-.44.23-.87.44-1.33.63-1.85.76-3.84,1.12-6.01,1.12-1.72,0-3.32-.23-4.83-.71-1.25-.39-2.43-.95-3.55-1.67-.57-.36-1.12-.77-1.66-1.24-.38-.32-.74-.66-1.11-1.02-.25-.25-.48-.49-.71-.74-2.65-2.93-3.95-6.3-3.95-10.28s1.83-7.85,5.46-11.9l1.38-1.54h.01c3.38-3.83,5.95-7.47,7.64-10.8.32-.63.63-1.3.92-1.98l.41-.93.41.93c.29.7.61,1.35.93,1.98,1.69,3.35,4.25,6.97,7.64,10.79h.01s1.38,1.56,1.38,1.56c3.63,4.05,5.47,8.05,5.47,11.9,0,4.27-1.48,7.82-4.51,10.89h0ZM72.18.16c-.07.29-.15.57-.23.84-.96,3.45-2.03,6.34-3.19,8.63-1.57,3.13-4.02,6.56-7.23,10.2l-1.39,1.55c-4.09,4.57-6.17,9.2-6.17,13.74,0,3.9,1.12,7.41,3.32,10.48.47.66.99,1.3,1.57,1.91.19.21.39.41.6.61.2.21.39.4.6.57.8.73,1.63,1.38,2.5,1.95,2.96,1.94,6.3,2.91,9.99,2.91,4.15,0,7.86-1.22,11.08-3.64.14-.1.27-.21.42-.32.57-.45,1.12-.93,1.65-1.47.4-.4.8-.81,1.15-1.24.16-.17.3-.36.45-.53,2.57-3.24,3.88-6.99,3.88-11.21,0-4.56-2.09-9.19-6.2-13.76l-1.38-1.55c-3.24-3.64-5.67-7.07-7.24-10.2-1.16-2.29-2.23-5.18-3.21-8.63-.08-.27-.15-.55-.23-.83h-.74Z"/>
  <ellipse class="cls-3" cx="72.49" cy="35.3" rx="16.19" ry="16.76"/>
  <polygon class="cls-3" points="72.58 5.41 63.43 21.25 81.72 21.25 72.58 5.41"/>
  <path class="cls-1" d="m70.85,46.72c-.32.64-.96,1.02-1.65,1.02-.26,0-.54-.06-.8-.19-10.03-4.88-10.15-13.85-10.15-14.22,0-1,.82-1.82,1.82-1.82s1.82.82,1.82,1.81c0,.32.19,7.11,8.11,10.96.92.45,1.28,1.54.84,2.44h0Z"/>
  <g>
    <path class="cls-4" d="m109.76,59.73c-.04-.34-.19-.6-.47-.78-.27-.19-.62-.28-1.04-.28-.3,0-.56.05-.77.14-.22.09-.39.22-.51.38-.12.16-.18.35-.18.55,0,.17.04.32.12.45.08.12.19.23.32.31s.28.15.43.21c.15.06.3.1.44.14l.71.18c.23.06.47.13.71.23.24.1.47.22.68.38.21.16.38.36.51.59s.19.51.19.84c0,.41-.11.78-.32,1.1-.21.32-.52.57-.92.76s-.89.28-1.45.28-1.02-.09-1.41-.26-.71-.42-.93-.74c-.22-.32-.35-.7-.37-1.13h1.1c.02.26.11.48.26.66.15.17.34.3.58.39s.49.13.78.13c.31,0,.59-.05.83-.15.24-.1.43-.24.57-.41.14-.18.21-.38.21-.62,0-.22-.06-.39-.18-.53-.12-.14-.29-.25-.49-.34s-.44-.17-.7-.24l-.86-.23c-.58-.16-1.04-.39-1.38-.7-.34-.31-.51-.71-.51-1.22,0-.42.11-.79.34-1.1.23-.31.54-.56.92-.73.39-.17.83-.26,1.31-.26s.93.09,1.3.26.67.41.89.71c.22.3.33.65.34,1.04h-1.06Z"/>
    <path class="cls-4" d="m114.74,65.2c-.51,0-.96-.12-1.34-.35-.38-.23-.68-.56-.89-.98-.21-.42-.32-.91-.32-1.48s.11-1.06.32-1.48c.21-.42.51-.75.89-.99.38-.23.83-.35,1.34-.35s.96.12,1.34.35c.38.23.68.56.89.99.21.42.32.92.32,1.48s-.11,1.06-.32,1.48c-.21.42-.51.75-.89.98-.38.23-.83.35-1.34.35Zm0-.89c.33,0,.61-.09.82-.26s.38-.41.48-.7c.11-.29.16-.61.16-.96s-.05-.67-.16-.96c-.11-.29-.27-.53-.48-.7-.22-.18-.49-.27-.82-.27s-.61.09-.83.27c-.22.18-.38.41-.49.7-.11.29-.16.61-.16.96s.05.67.16.96c.11.29.27.52.49.7s.5.26.83.26Z"/>
    <path class="cls-4" d="m121.37,59.64v.85h-3.08v-.85h3.08Zm-2.24,5.45v-6.09c0-.34.08-.62.22-.85.15-.23.35-.39.59-.51.25-.11.51-.17.8-.17.21,0,.4.02.55.05.15.04.26.07.34.09l-.25.86s-.11-.03-.19-.05-.17-.03-.28-.03c-.26,0-.44.06-.55.19-.11.13-.17.31-.17.55v5.94h-1.06Z"/>
    <path class="cls-4" d="m125.3,59.64v.85h-2.98v-.85h2.98Zm-2.18-1.31h1.06v5.16c0,.21.03.36.09.46.06.1.14.17.24.21.1.04.21.05.32.05.08,0,.16,0,.22-.02.06-.01.11-.02.15-.03l.19.88c-.06.02-.15.05-.26.07-.11.02-.26.04-.43.04-.28,0-.54-.04-.78-.15-.24-.1-.44-.26-.59-.48-.15-.22-.22-.49-.22-.82v-5.38Z"/>
    <path class="cls-4" d="m127.96,65.09l-1.61-5.45h1.1l1.07,4h.05l1.07-4h1.1l1.07,3.99h.05l1.06-3.99h1.1l-1.6,5.45h-1.08l-1.11-3.94h-.08l-1.11,3.94h-1.08Z"/>
    <path class="cls-4" d="m136.91,65.21c-.35,0-.66-.06-.94-.19-.28-.13-.5-.32-.66-.56s-.24-.55-.24-.91c0-.31.06-.56.18-.76.12-.2.28-.36.48-.47s.43-.2.67-.26c.25-.06.5-.1.76-.13.33-.04.59-.07.79-.09.2-.02.35-.07.44-.12s.14-.15.14-.28v-.02c0-.31-.09-.55-.26-.72-.17-.17-.43-.26-.78-.26s-.64.08-.84.24c-.2.16-.35.33-.42.52l-1-.23c.12-.33.29-.6.52-.8.23-.21.49-.35.79-.45.3-.09.61-.14.94-.14.22,0,.45.03.69.08s.47.14.69.28c.21.14.39.33.53.58.14.25.21.57.21.97v3.62h-1.04v-.75h-.04c-.07.14-.17.27-.31.41-.14.13-.31.24-.53.33s-.47.13-.77.13Zm.23-.85c.29,0,.54-.06.75-.17.21-.12.37-.27.48-.46.11-.19.17-.39.17-.61v-.7s-.11.07-.22.11c-.11.03-.23.06-.37.08-.14.02-.27.04-.4.06-.13.02-.24.03-.33.04-.21.03-.39.07-.56.13-.17.06-.3.15-.41.26-.1.12-.15.27-.15.46,0,.26.1.46.29.59.19.13.44.2.74.2Z"/>
    <path class="cls-4" d="m141.32,65.09v-5.45h1.03v.87h.06c.1-.29.28-.53.53-.69s.54-.25.86-.25c.07,0,.15,0,.24,0s.16.01.21.02v1.02s-.12-.03-.23-.04c-.11-.02-.22-.02-.33-.02-.25,0-.47.05-.67.16s-.35.25-.46.44c-.11.19-.17.4-.17.63v3.33h-1.06Z"/>
    <path class="cls-4" d="m147.61,65.2c-.54,0-1-.12-1.39-.35-.39-.23-.69-.56-.89-.98-.21-.42-.31-.91-.31-1.48s.1-1.05.31-1.48c.21-.43.5-.76.88-1,.38-.24.82-.36,1.33-.36.31,0,.61.05.89.15s.55.26.78.48c.23.22.41.5.54.85.13.35.2.77.2,1.26v.38h-4.34v-.8h3.29c0-.28-.06-.53-.17-.74-.11-.22-.27-.39-.48-.51-.2-.13-.44-.19-.72-.19-.3,0-.56.07-.78.22s-.39.33-.51.57c-.12.23-.18.49-.18.76v.62c0,.37.06.67.19.93s.31.45.54.58c.23.13.5.2.81.2.2,0,.38-.03.55-.09.17-.06.31-.14.43-.26.12-.12.21-.26.28-.43l1,.18c-.08.3-.22.55-.43.78-.21.22-.47.39-.78.51-.31.12-.67.18-1.06.18Z"/>
    <path class="cls-4" d="m155.08,65.09h-1.16l2.62-7.27h1.27l2.62,7.27h-1.17l-2.06-5.95h-.06l-2.06,5.95Zm.2-2.85h3.78v.92h-3.78v-.92Z"/>
    <path class="cls-4" d="m161.68,67.14v-7.5h1.04v.88h.09c.06-.11.15-.25.27-.39.12-.15.28-.28.48-.39.21-.11.48-.17.82-.17.44,0,.83.11,1.18.33.34.22.62.54.81.96s.3.92.3,1.51-.1,1.09-.29,1.51-.47.74-.81.97c-.34.23-.74.34-1.18.34-.33,0-.6-.06-.81-.17-.21-.11-.37-.24-.49-.39-.12-.15-.21-.28-.27-.4h-.06v2.89h-1.06Zm1.04-4.77c0,.38.06.72.17,1.01s.27.51.48.68.47.24.77.24.58-.08.79-.25.38-.4.48-.69c.11-.29.17-.62.17-.98s-.05-.68-.16-.97c-.11-.29-.27-.51-.48-.68-.21-.17-.48-.25-.8-.25s-.57.08-.78.24c-.21.16-.37.38-.48.66-.11.28-.16.62-.16.99Z"/>
    <path class="cls-4" d="m168.16,67.14v-7.5h1.04v.88h.09c.06-.11.15-.25.27-.39.12-.15.28-.28.48-.39.21-.11.48-.17.82-.17.44,0,.83.11,1.18.33.34.22.62.54.81.96s.3.92.3,1.51-.1,1.09-.29,1.51-.47.74-.81.97c-.34.23-.74.34-1.18.34-.33,0-.6-.06-.81-.17-.21-.11-.37-.24-.49-.39-.12-.15-.21-.28-.27-.4h-.06v2.89h-1.06Zm1.04-4.77c0,.38.06.72.17,1.01s.27.51.48.68.47.24.77.24.58-.08.79-.25.38-.4.48-.69c.11-.29.17-.62.17-.98s-.05-.68-.16-.97c-.11-.29-.27-.51-.48-.68-.21-.17-.48-.25-.8-.25s-.57.08-.78.24c-.21.16-.37.38-.48.66-.11.28-.16.62-.16.99Z"/>
    <path class="cls-4" d="m175.69,57.82v7.27h-1.06v-7.27h1.06Z"/>
    <path class="cls-4" d="m177.95,58.8c-.18,0-.34-.06-.47-.19-.13-.12-.2-.27-.2-.45s.07-.32.2-.45c.13-.12.29-.19.47-.19s.34.06.47.19c.13.12.2.27.2.45s-.07.32-.2.45c-.13.12-.29.19-.47.19Zm-.54,6.3v-5.45h1.06v5.45h-1.06Z"/>
    <path class="cls-4" d="m182.5,65.2c-.53,0-.98-.12-1.36-.36s-.67-.57-.88-1c-.2-.42-.31-.91-.31-1.46s.1-1.04.31-1.47.5-.76.88-1,.83-.36,1.34-.36c.41,0,.78.08,1.11.23.32.15.59.37.79.64s.32.59.36.96h-1.03c-.06-.26-.19-.48-.39-.66s-.47-.28-.81-.28c-.3,0-.55.08-.78.23-.22.16-.39.38-.52.66s-.18.62-.18,1.01.06.74.18,1.03c.12.29.29.51.51.67.22.16.48.24.78.24.2,0,.38-.04.55-.11.16-.07.3-.18.42-.32s.19-.31.24-.5h1.03c-.04.35-.15.67-.34.94-.19.28-.45.5-.77.65-.32.16-.7.24-1.13.24Z"/>
    <path class="cls-4" d="m187.77,65.21c-.35,0-.66-.06-.94-.19-.28-.13-.5-.32-.66-.56s-.24-.55-.24-.91c0-.31.06-.56.18-.76.12-.2.28-.36.48-.47s.43-.2.67-.26c.25-.06.5-.1.76-.13.33-.04.59-.07.79-.09.2-.02.35-.07.44-.12s.14-.15.14-.28v-.02c0-.31-.09-.55-.26-.72-.17-.17-.43-.26-.78-.26s-.64.08-.84.24c-.2.16-.35.33-.42.52l-1-.23c.12-.33.29-.6.52-.8.23-.21.49-.35.79-.45.3-.09.61-.14.94-.14.22,0,.45.03.69.08s.47.14.69.28c.21.14.39.33.53.58.14.25.21.57.21.97v3.62h-1.04v-.75h-.04c-.07.14-.17.27-.31.41-.14.13-.31.24-.53.33s-.47.13-.77.13Zm.23-.85c.29,0,.54-.06.75-.17.21-.12.37-.27.48-.46.11-.19.17-.39.17-.61v-.7s-.11.07-.22.11c-.11.03-.23.06-.37.08-.14.02-.27.04-.4.06-.13.02-.24.03-.33.04-.21.03-.39.07-.56.13-.17.06-.3.15-.41.26-.1.12-.15.27-.15.46,0,.26.1.46.29.59.19.13.44.2.74.2Z"/>
    <path class="cls-4" d="m194.72,59.64v.85h-2.98v-.85h2.98Zm-2.18-1.31h1.06v5.16c0,.21.03.36.09.46.06.1.14.17.24.21.1.04.21.05.32.05.08,0,.16,0,.22-.02.06-.01.11-.02.15-.03l.19.88c-.06.02-.15.05-.26.07-.11.02-.26.04-.43.04-.28,0-.54-.04-.78-.15-.24-.1-.44-.26-.59-.48-.15-.22-.22-.49-.22-.82v-5.38Z"/>
    <path class="cls-4" d="m196.73,58.8c-.18,0-.34-.06-.47-.19-.13-.12-.2-.27-.2-.45s.07-.32.2-.45c.13-.12.29-.19.47-.19s.34.06.47.19c.13.12.2.27.2.45s-.07.32-.2.45c-.13.12-.29.19-.47.19Zm-.54,6.3v-5.45h1.06v5.45h-1.06Z"/>
    <path class="cls-4" d="m201.28,65.2c-.51,0-.96-.12-1.34-.35-.38-.23-.68-.56-.89-.98-.21-.42-.32-.91-.32-1.48s.11-1.06.32-1.48c.21-.42.51-.75.89-.99.38-.23.83-.35,1.34-.35s.96.12,1.34.35c.38.23.68.56.89.99.21.42.32.92.32,1.48s-.11,1.06-.32,1.48c-.21.42-.51.75-.89.98-.38.23-.83.35-1.34.35Zm0-.89c.33,0,.61-.09.82-.26s.38-.41.48-.7c.11-.29.16-.61.16-.96s-.05-.67-.16-.96c-.11-.29-.27-.53-.48-.7-.22-.18-.49-.27-.82-.27s-.61.09-.83.27c-.22.18-.38.41-.49.7-.11.29-.16.61-.16.96s.05.67.16.96c.11.29.27.52.49.7s.5.26.83.26Z"/>
    <path class="cls-4" d="m206.37,61.85v3.24h-1.06v-5.45h1.02v.89h.07c.12-.29.32-.52.59-.7s.61-.26,1.02-.26c.37,0,.7.08.98.23s.5.39.65.69c.15.31.23.68.23,1.13v3.47h-1.06v-3.34c0-.4-.1-.71-.31-.93s-.49-.33-.85-.33c-.25,0-.46.05-.66.16s-.34.26-.45.47c-.11.21-.17.45-.17.74Z"/>
  </g>
</svg>